<?xml version="1.0" standalone="no"?><!DOCTYPE svg PUBLIC "-//W3C//DTD SVG 1.1//EN" "http://www.w3.org/Graphics/SVG/1.1/DTD/svg11.dtd"><svg t="1571280315723" class="icon" viewBox="0 0 1024 1024" version="1.1" xmlns="http://www.w3.org/2000/svg" p-id="8041" xmlns:xlink="http://www.w3.org/1999/xlink" width="128" height="128"><defs><style type="text/css"></style></defs><path d="M166.55363766 678.06684921c-72.49867668 0-131.48002164 58.98002064-131.48002163 131.47869602s58.98134495 131.47869603 131.48002163 131.47869603 131.47869603-58.98002064 131.47869603-131.47869603S239.05231306 678.06684921 166.55363766 678.06684921zM166.55363766 890.68529983c-44.74072362 0-81.14107762-36.3990297-81.14107762-81.1397533s36.4003553-81.1397533 81.14107762-81.13975331 81.1397533 36.3990297 81.13975332 81.13975331S211.2956856 890.68529983 166.55363766 890.68529983z" p-id="8042" fill="#F4516C"></path><path d="M790.16571569 678.06684921c-72.49867668 0-131.48002164 58.98002064-131.48002162 131.47869602s58.98134495 131.47869603 131.48002162 131.47869603 131.47869603-58.98002064 131.47869603-131.47869603S862.66439109 678.06684921 790.16571569 678.06684921zM790.16571569 890.68529983c-44.74072362 0-81.14107762-36.3990297-81.14107761-81.1397533s36.4003553-81.1397533 81.14107761-81.13975331 81.1397533 36.3990297 81.13975331 81.13975331S834.90776364 890.68529983 790.16571569 890.68529983z" p-id="8043" fill="#F4516C"></path><path d="M1053.78281351 742.54838694L1053.78281351 143.9110474 384.77693154 143.9110474l0-60.93661555-75.48059639 0 0 60.93661555-101.67539321 0L23.64667621 462.56318346l-1.15779619-0.66897854c-22.74790353 35.97512277-59.52977479 62.19243936-102.65700274 70.94876614l0 268.12375836 63.89866542 0c5.49091871-96.02948332 85.09135986-172.21217514 182.49721567-172.21217512s177.00629696 76.18269182 182.49721568 172.21217512l260.26955906 0c5.49091871-96.02948332 85.09135986-172.21217514 182.49721568-172.21217512s177.00629696 76.18269182 182.49721568 172.21217512l26.84125426 0 52.9552434 0 50.38265929 0 0-58.41834378L1053.78281351 742.54838694zM326.12543883 458.27377619L139.36928286 458.27377619l0-50.35351534 112.23332371-194.39310326 74.52415658 0L326.12676315 458.27377619zM746.45826533 408.68991694l-81.45900843 0 0 81.45900845-71.54223686 0 0-81.45900845-81.45768285 0 0-71.54223685 81.45768285 0 0-81.45900846 71.54223686 0 0 81.45900846 81.45900843 0L746.45826533 408.68991694z" p-id="8044" fill="#F4516C"></path></svg>