<?xml version="1.0" standalone="no"?><!DOCTYPE svg PUBLIC "-//W3C//DTD SVG 1.1//EN" "http://www.w3.org/Graphics/SVG/1.1/DTD/svg11.dtd"><svg t="1571273285246" class="icon" viewBox="0 0 1119 1024" version="1.1" xmlns="http://www.w3.org/2000/svg" p-id="7380" width="139.875" height="128" xmlns:xlink="http://www.w3.org/1999/xlink"><defs><style type="text/css"></style></defs><path d="M455.226016 527.77166A260.571785 260.571785 0 0 0 711.645262 263.526476 260.651642 260.651642 0 0 0 455.226016 0a260.651642 260.651642 0 0 0-256.818529 263.526476A260.571785 260.571785 0 0 0 455.226016 527.77166zM575.889199 558.995555H334.323263A340.667862 340.667862 0 0 0 0.043921 905.013803a117.708493 117.708493 0 0 0 115.791936 118.986197h678.780317A118.746627 118.746627 0 0 0 910.40811 902.378539 340.02901 340.02901 0 0 0 575.889199 558.995555z" p-id="7381" fill="#40C9C6"></path><path d="M1034.664837 634.539811a479.139047 479.139047 0 0 0-213.855728-163.226702 323.418857 323.418857 0 0 0 54.621851-182.551977A330.286516 330.286516 0 0 0 780.401716 61.090228a47.913905 47.913905 0 0 0-63.885207-2.874834 42.323949 42.323949 0 0 0-15.332449 30.505186 41.685097 41.685097 0 0 0 12.138189 31.303751 242.204788 242.204788 0 0 1 1.357561 341.306715 41.764954 41.764954 0 0 0-6.947516 9.662637 41.205958 41.205958 0 0 0-1.197848 42.962801 45.837635 45.837635 0 0 0 28.58863 21.401545 368.218358 368.218358 0 0 1 290.757545 393.373157 41.445528 41.445528 0 0 0 9.103642 30.984325 46.795914 46.795914 0 0 0 31.942603 16.849723 43.202371 43.202371 0 0 0 4.871247 0 44.959214 44.959214 0 0 0 45.598066-38.810262 431.225142 431.225142 0 0 0-82.09249-303.45473z" p-id="7382" fill="#40C9C6"></path></svg>
