<?xml version="1.0" standalone="no"?><!DOCTYPE svg PUBLIC "-//W3C//DTD SVG 1.1//EN" "http://www.w3.org/Graphics/SVG/1.1/DTD/svg11.dtd"><svg t="1571280097685" class="icon" viewBox="0 0 1024 1024" version="1.1" xmlns="http://www.w3.org/2000/svg" p-id="5297" xmlns:xlink="http://www.w3.org/1999/xlink" width="128" height="128"><defs><style type="text/css"></style></defs><path d="M494.592 1024c-9.216 0-14.336-6.656-14.336-17.92v-30.72h-23.552c-13.824 0-18.944-4.608-18.944-17.92v-53.76h-20.48c-30.72 0-57.856-20.48-66.56-50.176-3.584-10.24-12.288-17.92-23.04-20.992-11.776-3.584-23.552-8.192-34.304-13.824-55.808-27.136-91.648-84.48-90.624-146.432V316.928c13.824-85.504 87.04-147.968 174.08-147.968H409.6v-20.48H29.696C13.312 148.48 0 134.656 0 118.272s13.312-29.696 29.696-29.696H409.6v-19.456C407.552 35.84 431.104 6.656 463.872 2.56h64c32.768 4.096 56.832 33.28 54.272 66.56v19.456h381.44v-56.32c0-16.384 13.312-29.696 29.696-29.696s29.696 13.312 29.696 29.696v951.296c0 16.384-13.312 29.696-29.696 29.696s-29.696-13.312-29.696-29.696V145.92h-381.44v20.48h31.232c87.04 0 160.256 62.464 173.568 148.48V670.72c1.024 61.952-34.816 119.296-90.624 146.432-10.752 6.144-22.528 10.752-34.304 13.824-11.264 3.072-19.968 12.288-22.528 23.552-8.192 29.184-35.328 49.664-66.048 49.664h-18.944v53.76c0 13.312-5.12 17.92-18.944 17.92h-25.088v30.72c0.512 4.608-0.512 9.216-3.584 12.288-3.584 3.072-7.68 5.12-12.288 5.12zM378.368 228.864c-54.784 1.024-101.888 38.912-114.176 92.16V670.72c-1.024 40.96 22.528 78.336 59.904 95.232l17.92 7.168h8.704c29.696 8.704 53.248 32.256 61.952 62.464l3.072 10.24c1.536 6.656 2.048 6.656 3.584 6.656 2.048 0 2.048-2.048 2.56-3.072 0.512-5.12 1.536-6.656 3.584-6.656h145.92c8.704 0 11.776 0 12.288-7.168 8.192-29.184 30.72-52.736 59.392-62.464h7.168l18.944-7.168c37.376-16.896 60.928-54.272 59.904-95.232V321.536c-11.776-53.76-59.904-92.672-114.688-92.672H378.368zM470.016 168.96h52.736v-20.48H470.016v20.48z m0-80.384h52.736v-19.456c0.512-1.536 0.512-3.072 0-5.12l-0.512-1.536H470.016v26.112z m4.608 562.176c-16.384 0-29.696-13.312-29.696-29.696 0.512-16.384 13.312-29.696 30.208-30.208h140.8c16.384 0 29.696 13.312 29.696 30.208 0 16.384-13.312 29.696-29.696 29.696H474.624z m0-111.104c-16.384 0-29.696-13.312-29.696-29.696 0.512-16.384 13.312-29.696 30.208-30.208h140.8c16.384 0 29.696 13.312 29.696 30.208s-13.312 29.696-29.696 29.696H474.624z m0-122.88c-16.384 0-29.696-13.312-29.696-29.696 0.512-16.384 13.312-29.696 30.208-29.696h140.8c16.384 0 29.696 13.312 29.696 29.696 0 16.384-13.312 29.696-29.696 29.696H474.624z" p-id="5298" fill="#36A3F7"></path></svg>